# xmcd
#
# Track frame offsets: 
#        150
#        14820
#        33685
#        45865
#        63977
#        83372
#        100865
#        117887
#        133457
#        153477
#
# Disc length: 2275 seconds
#
# Revision: 5
# Processed by: cddbd v1.4PL0 Copyright (c) Steve Scherf et al.
# Submitted via: ExactAudioCopy v0.90b4
#
DISCID=7e08e10a
DTITLE=Bryan White - The Right Place
DYEAR=1997
DGENRE=Country
TTITLE0=Love Is The Right Place
TTITLE1=What Did I Do (To Deserve You)
TTITLE2=Never Get Around To It
TTITLE3=Leave My Heart Out Of This
TTITLE4=The Natural Thing
TTITLE5=One Small Miracle
TTITLE6=Tree Of Hearts
TTITLE7=We Could Have Been
TTITLE8=Bad Day To Let You Go
TTITLE9=Call Me Crazy
EXTD=:-) My fav. Country C.D. you just have to love bryan white, he is
EXTD=da bomb, he is all that and a bag of crisps!
EXTT0=
EXTT1=
EXTT2=
EXTT3=
EXTT4=
EXTT5=
EXTT6=
EXTT7=
EXTT8=
EXTT9=
PLAYORDER=
